<?xml version="1.0" standalone="no"?>
<!DOCTYPE svg PUBLIC "-//W3C//DTD SVG 20010904//EN"
 "http://www.w3.org/TR/2001/REC-SVG-20010904/DTD/svg10.dtd">
<svg version="1.0" xmlns="http://www.w3.org/2000/svg"
 width="2000.000000pt" height="2000.000000pt" viewBox="0 0 2000.000000 2000.000000"
 preserveAspectRatio="xMidYMid meet">
<metadata>
Created by potrace 1.11, written by Peter Selinger 2001-2013
</metadata>
<g transform="translate(0.000000,2000.000000) scale(0.100000,-0.100000)"
fill="#000000" stroke="none">
<path d="M3905 17174 c-60 -12 -127 -27 -147 -32 -20 -5 -39 -7 -42 -4 -3 2
-8 -2 -12 -11 -3 -9 -27 -23 -54 -32 -26 -9 -56 -25 -65 -35 -10 -11 -22 -20
-27 -20 -13 0 -151 -109 -162 -127 -27 -48 -167 -137 -233 -149 -23 -4 -48 0
-76 12 -64 28 -153 88 -181 121 -25 30 -47 42 -208 117 -125 57 -250 79 -397
70 -56 -4 -101 -11 -101 -15 0 -4 -15 -11 -34 -15 -19 -3 -44 -17 -57 -30 -12
-13 -28 -24 -36 -24 -16 0 -109 -89 -105 -101 1 -5 -2 -9 -7 -9 -11 0 -38 -91
-46 -157 -7 -55 -2 -49 -113 -141 -43 -35 -78 -93 -108 -182 -15 -45 -19 -81
-17 -190 1 -129 3 -138 33 -205 24 -53 48 -86 101 -137 39 -38 76 -68 83 -68
8 0 19 -7 26 -15 7 -8 21 -15 31 -15 20 0 39 -28 39 -58 0 -24 94 -123 140
-148 63 -33 256 -80 365 -89 66 -6 71 -8 132 -61 35 -31 94 -90 131 -132 73
-83 179 -199 305 -332 99 -105 278 -260 342 -297 36 -21 110 -56 110 -52 0 2
14 -5 30 -17 38 -26 99 -54 117 -54 8 0 28 -6 44 -14 16 -8 49 -17 74 -21 58
-9 67 -17 76 -68 3 -23 23 -78 44 -122 36 -77 51 -112 55 -127 2 -5 4 -10 5
-13 4 -7 6 -16 15 -60 4 -22 10 -44 14 -50 3 -5 7 -19 8 -30 2 -11 8 -24 13
-29 6 -6 10 -22 10 -37 0 -15 4 -30 9 -34 6 -3 13 -27 16 -53 3 -26 12 -65 20
-87 7 -22 18 -71 25 -108 6 -38 15 -76 19 -85 11 -21 26 -114 41 -247 6 -55
15 -113 20 -130 5 -16 12 -67 14 -113 3 -46 8 -87 11 -92 3 -5 8 -49 11 -97 3
-49 8 -95 11 -103 3 -8 7 -20 9 -27 1 -6 7 -35 14 -65 7 -29 14 -78 16 -108 2
-30 7 -62 10 -70 3 -8 8 -46 10 -85 3 -38 7 -77 11 -85 3 -8 8 -42 9 -75 2
-33 7 -67 11 -75 3 -8 7 -28 8 -45 1 -26 6 -61 21 -138 2 -10 7 -32 13 -50 5
-18 14 -50 20 -72 36 -143 43 -177 53 -235 5 -36 16 -70 23 -75 7 -6 16 -29
20 -50 3 -22 10 -49 15 -60 5 -11 19 -54 31 -95 12 -41 28 -82 35 -90 7 -9 20
-41 28 -72 8 -30 19 -64 25 -74 6 -11 15 -38 21 -61 6 -24 15 -43 20 -43 5 0
18 -28 29 -62 22 -72 111 -254 144 -295 12 -15 33 -48 46 -73 13 -25 39 -66
57 -93 19 -26 34 -50 34 -55 0 -4 17 -30 38 -57 21 -28 41 -57 45 -65 20 -39
35 -59 70 -89 20 -18 37 -40 37 -47 0 -15 233 -251 301 -304 64 -51 95 -84
113 -118 9 -17 21 -32 26 -32 5 0 11 -9 15 -19 3 -11 29 -44 58 -75 29 -30 62
-65 74 -78 53 -57 99 -94 162 -133 9 -5 26 -19 37 -31 24 -24 120 -42 137 -25
6 6 14 6 21 0 34 -29 165 -107 191 -114 100 -25 173 -25 190 -2 15 21 24 21
46 1 36 -32 205 -57 389 -57 102 0 117 -3 135 -21 12 -12 22 -25 24 -31 2 -5
8 -21 13 -35 6 -14 14 -36 19 -49 6 -14 14 -65 19 -115 8 -84 52 -291 85 -396
12 -39 36 -124 40 -140 3 -15 17 -58 25 -75 4 -11 13 -40 20 -65 13 -49 54
-170 102 -295 31 -82 41 -107 76 -185 81 -183 141 -319 177 -405 24 -55 51
-118 61 -140 68 -154 142 -365 173 -495 44 -183 54 -296 52 -610 -3 -459 -7
-595 -16 -610 -5 -8 -10 -19 -11 -25 -1 -5 -9 -50 -18 -100 -63 -372 -148
-806 -181 -925 -8 -30 -20 -82 -26 -115 -6 -33 -15 -64 -20 -69 -5 -6 -9 -19
-9 -31 0 -14 -12 -25 -40 -37 -69 -30 -85 -82 -71 -233 4 -40 1 -65 -9 -75
-12 -12 -130 -266 -130 -280 0 -13 -60 -133 -70 -140 -9 -6 -25 -52 -22 -62 1
-5 -2 -8 -7 -8 -12 0 -37 -78 -35 -110 1 -14 2 -37 3 -53 2 -40 49 -84 101
-96 120 -26 198 -31 477 -31 339 0 394 6 438 50 27 28 30 37 32 103 1 77 -12
181 -27 209 -9 16 -16 51 -44 225 -13 79 -13 85 8 125 28 56 27 188 -2 227
-15 22 -17 36 -10 81 12 92 29 183 41 220 13 41 12 38 22 114 4 33 11 71 16
84 5 13 14 56 19 96 6 39 17 98 25 131 103 430 115 481 135 530 6 17 13 38 15
47 11 54 109 242 148 286 9 10 17 23 17 28 0 5 8 21 17 34 10 14 23 45 30 70
15 55 17 206 3 215 -5 3 -10 17 -10 31 0 14 -6 37 -14 53 -18 33 -71 192 -82
241 -11 53 -5 214 12 315 9 50 18 114 21 143 l5 52 29 -37 c16 -21 29 -42 29
-46 0 -4 8 -20 19 -35 47 -69 101 -152 101 -157 0 -3 12 -24 27 -48 47 -73
145 -266 188 -367 15 -36 33 -80 41 -99 15 -35 35 -94 74 -216 43 -140 87
-213 179 -302 48 -46 100 -89 117 -98 36 -17 51 -33 51 -55 1 -8 3 -28 7 -45
3 -16 11 -61 17 -100 5 -38 14 -79 19 -90 5 -11 20 -76 34 -145 24 -121 52
-246 77 -340 6 -25 22 -94 35 -155 13 -60 26 -117 28 -125 6 -19 35 -145 42
-183 3 -15 18 -78 34 -140 l29 -112 -21 -23 c-17 -17 -23 -39 -26 -87 -4 -64
-4 -65 35 -105 22 -22 48 -40 58 -40 14 0 15 -3 5 -15 -7 -8 -9 -15 -5 -15 5
0 1 -8 -8 -17 -8 -10 -17 -25 -19 -33 -2 -8 -6 -17 -9 -20 -16 -14 -91 -183
-105 -239 -13 -51 -24 -72 -60 -106 -47 -46 -50 -57 -32 -116 15 -51 58 -82
133 -99 101 -21 454 -24 668 -5 201 18 239 25 268 51 25 23 25 98 0 150 -10
21 -38 95 -60 164 -23 69 -46 134 -52 145 -5 11 -29 77 -53 146 -35 102 -41
129 -31 142 16 23 19 147 4 198 -13 43 -74 99 -108 99 -12 0 -20 16 -29 58 -7
31 -22 80 -32 107 -10 28 -29 88 -41 135 -12 47 -26 90 -30 95 -4 6 -10 24
-13 40 -3 17 -17 71 -32 120 -14 50 -27 101 -30 114 -3 13 -9 32 -14 41 -5 9
-18 52 -30 96 -12 43 -28 102 -36 129 -8 28 -24 84 -35 125 -11 41 -27 95 -36
120 -36 107 -67 258 -83 400 -22 198 -85 460 -111 460 -3 0 -6 6 -6 13 0 18
-45 117 -53 117 -4 0 -7 7 -7 15 0 14 -42 105 -53 115 -22 19 -72 195 -100
350 -30 168 -40 222 -60 315 -12 55 -26 103 -32 106 -5 3 -9 10 -9 15 2 31
-44 153 -62 165 -5 3 -8 9 -7 13 2 8 -32 98 -65 171 -12 28 -28 65 -35 83 -7
17 -16 32 -21 32 -5 0 -9 8 -9 18 0 10 -13 43 -29 73 -16 31 -39 85 -52 120
-12 35 -26 69 -31 75 -4 6 -19 40 -32 75 -46 123 -51 134 -61 141 -6 5 -6 8 1
8 6 0 23 -9 37 -20 14 -11 29 -20 35 -20 5 0 27 -14 48 -31 21 -17 61 -41 89
-55 27 -13 57 -28 65 -33 8 -4 35 -18 60 -29 25 -12 73 -37 106 -56 34 -19 82
-40 107 -47 26 -6 52 -17 58 -25 6 -8 18 -14 27 -14 8 0 43 -15 76 -34 34 -18
77 -37 96 -41 19 -4 40 -11 45 -15 6 -5 30 -16 55 -25 38 -14 64 -22 135 -39
6 -2 22 -8 37 -14 15 -6 53 -18 85 -27 32 -9 96 -27 143 -40 120 -33 222 -55
260 -55 17 0 41 -5 52 -11 12 -6 42 -13 67 -15 25 -1 60 -5 76 -8 17 -3 62 -8
100 -11 39 -3 86 -8 105 -10 19 -2 62 -6 95 -9 33 -4 108 -11 166 -18 58 -6
114 -8 125 -3 10 4 23 7 29 6 28 -7 175 -7 186 0 8 4 19 3 26 -2 8 -8 40 -8
100 0 48 5 124 13 168 16 44 3 89 8 100 10 11 3 43 7 70 9 58 6 221 32 280 45
48 11 57 13 160 41 44 12 103 26 130 31 28 5 68 16 90 25 74 30 80 33 120 44
22 7 58 21 81 31 22 10 45 19 51 19 7 0 18 6 25 13 7 7 45 29 83 47 39 19 71
38 73 42 2 5 11 8 20 9 10 0 31 9 47 20 17 10 40 23 52 28 11 5 24 15 28 20
12 20 20 12 33 -32 13 -43 86 -245 102 -282 5 -11 23 -58 41 -105 18 -47 39
-94 46 -105 7 -11 13 -26 13 -35 0 -8 7 -28 15 -44 8 -15 15 -34 15 -41 0 -7
9 -30 19 -52 11 -21 27 -56 36 -78 9 -22 27 -62 40 -90 44 -94 65 -145 65
-153 0 -5 7 -22 15 -39 22 -45 63 -191 95 -347 17 -78 37 -166 46 -196 24 -81
41 -199 48 -335 11 -209 27 -319 70 -481 39 -145 50 -230 50 -394 1 -142 -8
-291 -19 -322 -2 -7 -6 -24 -9 -38 -18 -105 -145 -538 -166 -565 -4 -5 -11
-26 -14 -45 -4 -19 -11 -44 -15 -55 -5 -11 -14 -40 -21 -65 -7 -25 -21 -70
-33 -101 -19 -52 -24 -57 -69 -73 -72 -25 -91 -60 -84 -153 3 -55 1 -73 -8
-73 -7 0 -21 -9 -31 -20 -10 -11 -23 -20 -28 -20 -5 0 -28 -15 -51 -33 -23
-19 -60 -46 -83 -60 -53 -33 -233 -212 -295 -294 -50 -64 -68 -100 -68 -134 0
-30 57 -77 104 -85 100 -17 383 -30 646 -29 365 0 361 -2 374 161 9 101 13
158 23 264 4 47 8 90 8 95 0 6 18 17 39 25 59 23 79 57 78 131 -1 57 -4 65
-37 99 -41 42 -41 38 6 182 11 35 22 68 23 73 2 6 6 17 9 25 3 8 29 89 57 180
86 273 194 576 235 664 9 19 18 40 19 48 2 7 6 20 9 28 50 131 115 337 137
438 28 126 26 203 -9 310 -32 101 -45 152 -37 152 2 0 30 -44 62 -97 31 -54
71 -120 89 -148 52 -82 65 -127 70 -249 17 -384 28 -1176 18 -1296 -5 -69 -8
-77 -33 -92 -15 -8 -37 -36 -50 -62 -26 -56 -24 -109 9 -155 12 -16 21 -36 21
-44 0 -14 -32 -57 -126 -171 -111 -135 -174 -247 -174 -310 0 -59 20 -80 80
-88 72 -10 350 -12 420 -4 96 12 192 46 223 80 37 40 41 62 33 165 -19 242
-19 260 1 267 92 29 142 73 154 137 16 89 -18 169 -86 201 l-37 18 6 91 c4 51
9 126 12 167 2 41 7 104 9 140 3 36 7 124 10 195 3 72 8 157 10 190 2 33 9
137 15 230 5 94 15 238 21 320 l12 150 -32 100 c-18 55 -37 109 -41 120 -5 11
-11 31 -15 45 -3 14 -15 59 -26 100 -45 174 -92 472 -104 665 l-4 60 13 -40
c8 -22 19 -53 26 -70 6 -16 10 -31 8 -32 -7 -4 67 -73 79 -73 7 0 39 -13 71
-30 72 -36 77 -37 56 -5 -9 14 -13 32 -9 45 9 28 22 25 29 -6 4 -14 18 -38 31
-52 14 -15 25 -30 25 -34 0 -5 5 -8 11 -8 6 0 8 9 3 23 -4 12 -9 29 -11 37 -3
8 4 2 15 -15 27 -42 72 -82 105 -94 42 -16 133 -14 150 4 24 24 39 80 40 155
l2 69 31 -3 c17 -2 37 -7 44 -11 9 -5 11 -4 6 3 -4 7 -1 12 8 12 8 0 18 5 21
10 4 6 1 9 -5 8 -9 -2 -13 32 -14 117 -2 84 -8 135 -20 170 -21 58 -90 204
-121 255 -73 117 -111 176 -120 182 -5 4 -6 8 -1 8 6 0 0 9 -12 20 -11 11 -35
41 -53 67 -17 27 -45 62 -61 79 l-30 32 1 163 c2 231 11 339 47 579 14 91 27
176 30 190 33 182 37 234 41 554 3 215 1 392 -7 485 -25 323 -143 717 -266
897 -59 87 -177 214 -198 214 -8 0 -18 10 -22 22 -3 12 -22 56 -41 97 -98 218
-118 257 -181 348 -23 34 -42 65 -42 68 0 12 -93 142 -143 200 -139 161 -368
376 -505 473 -26 18 -70 53 -99 78 -28 24 -54 44 -57 44 -3 0 -14 6 -23 14
-99 81 -184 146 -190 146 -5 0 -14 9 -21 20 -7 11 -16 20 -20 20 -5 0 -30 20
-58 45 -27 25 -83 72 -124 106 -198 161 -376 331 -401 383 -10 22 -19 45 -19
52 0 6 -7 17 -15 24 -8 6 -14 15 -13 18 3 15 -15 62 -23 62 -5 0 -9 6 -9 13 0
17 -138 286 -161 313 -8 9 -13 18 -11 18 5 1 -14 44 -48 106 -17 30 -30 58
-30 61 0 7 -57 98 -77 124 -4 6 -9 17 -11 24 -1 7 -13 27 -26 45 -22 28 -49
74 -92 151 -9 17 -27 43 -40 58 -13 16 -24 33 -24 38 0 11 -95 154 -122 183
-17 18 -17 20 0 32 9 7 23 14 30 14 16 0 42 24 42 38 0 6 15 33 34 61 31 46
56 122 56 172 0 12 9 32 20 46 27 35 25 65 -6 102 -20 24 -34 31 -61 31 -19 0
-65 9 -101 19 -37 11 -95 25 -129 32 -35 7 -63 16 -63 20 0 9 52 73 63 77 12
6 8 57 -7 77 -13 18 -20 19 -132 7 -108 -11 -120 -10 -131 5 -7 9 -13 26 -13
37 -1 58 -100 116 -199 116 l-49 0 -10 43 c-14 52 -47 86 -99 98 -40 9 -171 2
-188 -11 -5 -4 -25 -12 -44 -19 -31 -10 -36 -9 -49 10 -24 35 -114 69 -182 69
-32 0 -62 -4 -65 -10 -3 -5 -16 -10 -28 -10 -24 0 -127 -56 -127 -69 0 -4 -12
-13 -26 -20 -21 -9 -30 -9 -43 2 -36 30 -185 97 -217 97 -62 0 -73 -73 -23
-146 17 -25 29 -48 26 -50 -3 -3 -31 -8 -63 -11 -104 -10 -134 -40 -120 -118
5 -24 20 -45 53 -72 25 -21 66 -57 91 -79 l46 -42 -19 -28 c-11 -16 -33 -55
-50 -88 -16 -32 -40 -77 -52 -100 -13 -25 -22 -60 -22 -89 -1 -39 4 -52 25
-72 15 -14 31 -25 35 -25 8 0 -57 -136 -71 -150 -3 -3 -29 -54 -59 -115 -30
-60 -65 -124 -77 -141 -13 -17 -24 -38 -24 -47 0 -10 -3 -17 -8 -17 -4 0 -16
-16 -27 -36 -10 -19 -34 -51 -52 -70 -18 -19 -38 -43 -45 -52 -48 -63 -124
-39 -201 65 -27 35 -65 97 -85 136 -20 40 -41 75 -45 78 -5 3 -9 9 -8 12 0 7
-19 54 -49 122 -35 79 -60 138 -60 140 0 1 20 0 45 -2 40 -5 45 -3 56 20 7 16
18 24 29 22 10 -2 37 1 60 7 l42 11 -28 26 c-16 15 -45 44 -64 65 l-35 37 34
-6 c23 -4 39 -1 50 9 9 8 28 16 43 18 41 6 42 13 2 34 -19 10 -45 35 -56 54
-12 19 -53 68 -92 108 l-70 72 66 0 c74 0 88 11 88 69 0 33 -40 64 -98 75 -18
3 -53 19 -77 36 -24 16 -46 30 -50 30 -11 0 -42 34 -96 105 -59 79 -157 188
-173 194 -6 2 -24 17 -41 33 -16 15 -34 28 -38 28 -4 0 2 13 14 29 21 29 21
79 0 120 -14 25 -128 66 -267 95 -142 31 -327 36 -406 11 l-48 -14 0 55 c0 81
-10 94 -74 94 -57 0 -52 4 -266 -197 l-36 -33 -39 38 c-57 54 -132 102 -160
102 -46 0 -57 -25 -50 -109 4 -42 11 -95 15 -119 15 -86 -6 -141 -82 -214 -15
-14 -28 -33 -28 -41 0 -8 -7 -17 -15 -21 -8 -3 -15 -12 -15 -20 0 -7 -6 -14
-12 -13 -7 0 -23 -1 -36 -1 -20 -2 -21 -4 -10 -22 8 -12 24 -20 39 -20 15 0
32 -7 39 -15 7 -8 21 -15 32 -15 19 0 18 -2 -4 -29 -13 -17 -27 -30 -33 -30
-13 -1 -74 -60 -99 -94 -10 -15 -22 -24 -26 -22 -4 3 -11 -2 -14 -10 -9 -24
46 -75 88 -82 42 -7 44 -12 12 -46 -13 -14 -34 -46 -47 -71 -12 -26 -26 -46
-30 -46 -4 0 -10 -13 -14 -30 -4 -16 -11 -32 -16 -35 -8 -5 -59 -108 -59 -119
0 -3 -16 -39 -37 -83 -20 -43 -36 -83 -36 -90 0 -7 -3 -13 -7 -13 -6 0 -24
-40 -50 -110 -7 -19 -28 -66 -46 -105 -34 -73 -72 -174 -81 -212 -3 -13 -9
-23 -13 -23 -4 0 -15 -21 -25 -47 -25 -67 -53 -133 -70 -164 -8 -14 -12 -29
-8 -33 3 -3 2 -6 -4 -6 -10 0 -23 -32 -22 -54 1 -5 -3 -12 -8 -15 -4 -3 -26
-42 -48 -86 -22 -44 -43 -81 -47 -83 -5 -2 -8 -8 -8 -14 0 -5 -11 -24 -25 -42
-14 -18 -25 -36 -25 -41 0 -13 -92 -134 -107 -139 -9 -4 -13 4 -13 27 0 18 -5
38 -12 45 -19 19 -85 15 -97 -5 -6 -10 -11 -14 -11 -9 0 4 -15 -3 -32 -16 -18
-14 -67 -43 -108 -65 l-76 -40 4 32 c6 53 -17 67 -102 59 -54 -5 -80 -3 -110
10 -21 9 -47 16 -57 16 -11 0 -19 4 -19 9 0 5 -10 12 -22 15 -33 8 -130 105
-179 178 -57 84 -107 188 -131 273 -52 188 -67 301 -93 680 -8 115 -16 220
-20 260 -6 57 -25 336 -23 344 4 15 -14 240 -22 281 -5 25 -19 99 -31 165 -23
128 -90 340 -129 415 -13 25 -32 61 -42 80 -23 46 -93 156 -108 170 -3 3 -14
18 -23 33 -20 32 -19 36 41 93 17 17 32 38 32 47 0 9 5 19 11 23 8 4 9 42 4
123 -6 105 -10 120 -36 159 -16 24 -29 47 -29 52 0 26 -159 139 -198 140 -7 0
-23 6 -35 14 -46 29 -118 45 -233 51 l-119 7 -75 81 c-156 169 -401 407 -419
407 -6 0 -11 4 -11 8 0 9 -172 139 -179 134 -2 -2 -7 1 -10 7 -6 10 -144 81
-157 81 -4 0 -15 7 -23 15 -21 18 -292 83 -354 84 -27 0 -65 2 -85 5 -21 2
-86 -7 -147 -20z"/>
</g>
</svg>
